<svg width="27" height="19" viewBox="0 0 27 19" fill="none" xmlns="http://www.w3.org/2000/svg">
<rect x="0.5" y="0.5" width="26" height="18" rx="3.5" fill="white"/>
<path d="M4.56738 12.2363H5.93457V13.7949H7.16504V12.2363H10.002V11.416H7.16504V10.2539H8.93555C10.8496 10.2539 12.1006 9.02344 12.1006 7.30762V7.29395C12.1006 5.58496 10.8701 4.34082 8.94922 4.34082H5.93457V9.43359H4.56738V10.2539H5.93457V11.416H4.56738V12.2363ZM7.16504 9.16016V5.43457H8.62793C10.1182 5.43457 10.8359 6.13184 10.8359 7.29395V7.30762C10.8359 8.46289 10.1045 9.16016 8.62793 9.16016H7.16504Z" fill="#969696"/>
<path d="M23.3536 9.85355C23.5488 9.65829 23.5488 9.34171 23.3536 9.14645L20.1716 5.96447C19.9763 5.7692 19.6597 5.7692 19.4645 5.96447C19.2692 6.15973 19.2692 6.47631 19.4645 6.67157L22.2929 9.5L19.4645 12.3284C19.2692 12.5237 19.2692 12.8403 19.4645 13.0355C19.6597 13.2308 19.9763 13.2308 20.1716 13.0355L23.3536 9.85355ZM15 10H23V9H15V10Z" fill="#969696"/>
<rect x="0.5" y="0.5" width="26" height="18" rx="3.5" stroke="#BEBEBE"/>
</svg>
